<svg id="Layer_1" data-name="Layer 1" xmlns="http://www.w3.org/2000/svg" viewBox="0 0 201 201"><defs><style>.cls-1{fill:#fff;}</style></defs><title>icon-people-atTable-Link</title><path class="cls-1" d="M154,444V243H355V444Zm188.71-23.23c0-7.74.1-15-.09-22.33,0-1.53-.8-4-1.8-4.38-5.48-1.84-5-7.09-7-10.93a42.28,42.28,0,0,0-6.63-9.84c-9.2-9.53-21.2-12.82-33.9-13.79-14.77-1.12-28.63,1.46-41.58,9.43-11.84,7.29-12.62,20.45-17.13,31.25-2.82,6.76-.52,15.64-.52,23.61h7.38v-20l93.67-2.72v19.71ZM266,354.82l0-1.55a38.34,38.34,0,0,1-14.61-24.75c-.27-1.61-2.32-3.57-4-4.22a62.57,62.57,0,0,0-37.73-2.51c-19.89,4.63-28.2,14.61-28.52,34.86,0,3.28-1.86,4.18-4,5.51-16,10.11-16.2,24.57.37,33.67,8.58,4.72,18.45,7.3,28,10,6.23,1.8,12.88,2.15,19.34,3.15,1-8.25,1-8.22-5.87-8.94-2.65-.28-5.29-.62-7.9-1.12-11-2.11-21.86-4.62-31.28-11.06-8.16-5.59-8.31-11.87-.17-17.31A60.67,60.67,0,0,1,193,364c19.15-6.71,39-7.6,59.1-7.16C256.72,356.94,261.39,355.53,266,354.82Zm21.19-2.72c16,0,28.14-12.06,28.16-28a28.17,28.17,0,0,0-56.34-.05C259,339.83,271.31,352.08,287.23,352.1Zm-62.76-88.2a25,25,0,1,0,25.29,24.75A24.88,24.88,0,0,0,224.47,263.9Z" transform="translate(-154 -243)"/><path d="M342.71,420.77h-7.6V401.06l-93.67,2.72v20h-7.38c0-8-2.3-16.85.52-23.61,4.51-10.8,5.29-24,17.13-31.25,13-8,26.81-10.55,41.58-9.43,12.7,1,24.7,4.26,33.9,13.79a42.28,42.28,0,0,1,6.63,9.84c2,3.84,1.52,9.09,7,10.93,1,.34,1.77,2.85,1.8,4.38C342.81,405.73,342.71,413,342.71,420.77Z" transform="translate(-154 -243)"/><path d="M266,354.82c-4.65.71-9.32,2.12-14,2-20.08-.44-40,.45-59.1,7.16a60.67,60.67,0,0,0-13.34,6.59c-8.14,5.44-8,11.72.17,17.31,9.42,6.44,20.3,9,31.28,11.06,2.61.5,5.25.84,7.9,1.12,6.91.72,6.91.69,5.87,8.94-6.46-1-13.11-1.35-19.34-3.15-9.51-2.74-19.38-5.32-28-10-16.57-9.1-16.35-23.56-.37-33.67,2.11-1.33,3.92-2.23,4-5.51.32-20.25,8.63-30.23,28.52-34.86a62.57,62.57,0,0,1,37.73,2.51c1.67.65,3.72,2.61,4,4.22A38.34,38.34,0,0,0,266,353.27Z" transform="translate(-154 -243)"/><path d="M287.23,352.1c-15.92,0-28.21-12.27-28.18-28.09a28.17,28.17,0,0,1,56.34.05C315.37,340,303.24,352.12,287.23,352.1Z" transform="translate(-154 -243)"/><path d="M224.47,263.9a25,25,0,1,1-24.82,25.26A24.81,24.81,0,0,1,224.47,263.9Z" transform="translate(-154 -243)"/></svg>