<svg id="Layer_1" data-name="Layer 1" xmlns="http://www.w3.org/2000/svg" viewBox="0 0 177.47 159.8"><title>icon-people-atTable-Preserve</title><path d="M395.76,473.73h-7.63V454l-93.48,2.77V476.7H287c0-7.91,0-15.7,0-23.48,0-.48.06-1.18.37-1.42,4.61-3.56,3.69-9.22,5.33-13.9,3.29-9.42,9.92-15.82,18.75-19.68,18.95-8.29,38.2-8.34,57.15-.07,10.44,4.55,17.63,12.34,20.14,23.87.24,1.08,1.06,2.56,2,2.88,4,1.45,5,4.5,5,8.27Z" transform="translate(-218.3 -316.9)"/><path d="M277.82,461.83c-15.87-1.66-31.21-4.16-45.32-11.56-.44-.23-.89-.45-1.32-.7-17-10-17.17-24.18-.52-34.81,1.52-1,3.35-3.2,3.23-4.7-1.73-21,12.53-32.07,30.34-35.68a62.78,62.78,0,0,1,36.29,2.95c1.57.62,3.59,2.34,3.82,3.8,1.61,10.38,6.52,18.71,16,26.22-5.62,1-10,2.63-14.4,2.52-20.41-.51-40.63.32-60.08,7.18a59.77,59.77,0,0,0-14.13,7.2c-6.9,4.8-6.8,10.77,0,15.82,9.47,7.06,20.72,9.58,32,11.83,2.77.55,5.59.89,8.4,1.19C279,453.81,279,453.83,277.82,461.83Z" transform="translate(-218.3 -316.9)"/><path d="M340.42,405.1c-16,0-28.35-12.15-28.37-27.9a27.85,27.85,0,0,1,28-28.3c16,0,28.26,12.09,28.3,28S356.35,405.09,340.42,405.1Z" transform="translate(-218.3 -316.9)"/><path d="M277.63,316.9a25,25,0,1,1-25,25.1A24.81,24.81,0,0,1,277.63,316.9Z" transform="translate(-218.3 -316.9)"/></svg>